<svg  width="119" height="70" viewBox="0 0 119 70" fill="none"
    xmlns="http://www.w3.org/2000/svg">
    <g>
        <path class="gradient-text"
            d="M81.1826 29.1873C83.2961 27.9104 86.9388 27.0941 86.9388 27.0941C86.9388 27.0941 83.3984 26.7152 81.1826 27.0941C74.0165 28.3194 68.2253 34.7924 62.8672 39.1299C62.8672 39.1299 49.7599 53.0097 41.9354 56.9219C34.1109 60.8342 28.2528 62.5773 19.957 57.9685C12.2702 52.8047 10.1131 46.0853 12 37C13.7448 28.5988 18.7556 22.7771 27.2831 21C33.3054 19.745 40.6078 20.973 45.5985 24.4776C46.9047 25.3948 48.7383 27.0941 48.7383 27.0941C48.7383 27.0941 47.6146 24.7631 46.6451 23.431C43.3971 18.9683 38.3655 16.5314 33.0394 15.5816C30.2228 15.0792 28.5769 14.8942 25.7132 15.0583C22.5923 15.2371 20.7816 15.6034 17.8638 16.6282C8.70943 19.8433 2.38345 30.019 1.11834 39.1299C-0.175049 55.8525 6 68.5 27.2831 70C45.3096 71.2705 55.6619 54.8842 66.5 43C70.7938 38.2362 75.5974 32.5615 81.1826 29.1873Z"
             />
        <path
            d="M35.7113 47.8824C33.5978 49.1593 29.955 49.9756 29.955 49.9756C29.955 49.9756 33.4955 50.3545 35.7113 49.9756C42.8773 48.7503 48.6685 42.2773 54.0266 37.9398C54.0266 37.9398 67.134 24.06 74.9585 20.1477C82.7829 16.2355 88.6411 14.4924 96.9369 19.1011C104.624 24.2649 106.781 30.9843 104.894 40.0696C103.149 48.4709 98.1382 54.2926 89.6107 56.0696C83.5885 57.3246 76.286 56.0966 71.2954 52.5921C69.9892 51.6748 68.1556 49.9756 68.1556 49.9756C68.1556 49.9756 69.2793 52.3065 70.2488 53.6387C73.4968 58.1013 78.5284 60.5382 83.8545 61.4881C86.6711 61.9904 88.317 62.1755 91.1806 62.0114C94.3016 61.8326 96.1123 61.4663 99.0301 60.4415C108.184 57.2263 114.51 47.0507 115.776 37.9398C117.069 21.2171 110.894 8.56966 89.6107 7.06965C71.5843 5.79916 61.232 22.1854 50.3939 34.0696C46.1001 38.8334 41.2964 44.5081 35.7113 47.8824Z"
            fill="black" />
        <circle cx="23.5" cy="38.5" r="6.5" fill="black" />
        <circle cx="92.5" cy="38.5" r="6.5" fill="white" />
    </g>
</svg>