<svg width="119" height="70" viewBox="0 0 119 70" fill="none" xmlns="http://www.w3.org/2000/svg">
<path d="M82.1826 24.1873C84.2961 22.9104 87.9388 22.0941 87.9388 22.0941C87.9388 22.0941 84.3984 21.7152 82.1826 22.0941C75.0165 23.3194 69.2253 29.7924 63.8672 34.1299C63.8672 34.1299 50.7599 48.0097 42.9354 51.9219C35.1109 55.8342 29.2528 57.5773 20.957 52.9685C13.2702 47.8047 11.1131 41.0853 13 32C14.7448 23.5988 19.7556 17.7771 28.2831 16C34.3054 14.745 41.6078 15.973 46.5985 19.4776C47.9047 20.3948 49.7383 22.0941 49.7383 22.0941C49.7383 22.0941 48.6146 19.7631 47.6451 18.431C44.3971 13.9683 39.3655 11.5314 34.0394 10.5816C31.2228 10.0792 29.5769 9.8942 26.7132 10.0583C23.5923 10.2371 21.7816 10.6034 18.8638 11.6282C9.70943 14.8433 3.38345 25.019 2.11834 34.1299C0.824951 50.8525 7 63.5 28.2831 65C46.3096 66.2705 56.6619 49.8842 67.5 38C71.7938 33.2362 76.5974 27.5615 82.1826 24.1873Z" fill="#747474"/>
<path d="M35.7113 47.8824C33.5978 49.1593 29.955 49.9756 29.955 49.9756C29.955 49.9756 33.4955 50.3545 35.7113 49.9756C42.8773 48.7503 48.6685 42.2773 54.0266 37.9398C54.0266 37.9398 67.134 24.06 74.9585 20.1477C82.7829 16.2355 88.6411 14.4924 96.9369 19.1011C104.624 24.2649 106.781 30.9843 104.894 40.0696C103.149 48.4709 98.1382 54.2926 89.6107 56.0696C83.5885 57.3246 76.286 56.0966 71.2954 52.5921C69.9892 51.6748 68.1556 49.9756 68.1556 49.9756C68.1556 49.9756 69.2793 52.3065 70.2488 53.6387C73.4968 58.1013 78.5284 60.5382 83.8545 61.4881C86.6711 61.9904 88.317 62.1755 91.1806 62.0114C94.3016 61.8326 96.1123 61.4663 99.0301 60.4415C108.184 57.2263 114.51 47.0507 115.776 37.9398C117.069 21.2171 110.894 8.56966 89.6107 7.06965C71.5843 5.79916 61.232 22.1854 50.3939 34.0696C46.1001 38.8334 41.2964 44.5081 35.7113 47.8824Z" fill="#747474"/>
<circle cx="26.5" cy="36.5" r="6.5" fill="#747474"/>
<circle cx="92.5" cy="36.5" r="6.5" fill="#747474"/>
</svg>
