<svg width="187" height="198" viewBox="0 0 187 198" fill="none" xmlns="http://www.w3.org/2000/svg">
<path d="M30 176.5H155V114M30 176.5C30 176.5 30 100.316 30 51.5M30 176.5V51.5M155 69.5H177V114H155M155 69.5H91V114H155M155 69.5V21.5H59M59 21.5V51.5M59 21.5L30 51.5M59 51.5C59 51.5 41.3252 51.5 30 51.5M59 51.5H30" stroke="white" stroke-width="5"/>
<path d="M109.459 95.4873V102H105.65V83.5156H112.861C114.249 83.5156 115.468 83.7695 116.518 84.2773C117.576 84.7852 118.388 85.5088 118.955 86.4482C119.522 87.3792 119.806 88.4414 119.806 89.6348C119.806 91.446 119.184 92.8763 117.939 93.9258C116.704 94.9668 114.99 95.4873 112.798 95.4873H109.459ZM109.459 92.4023H112.861C113.868 92.4023 114.634 92.1654 115.159 91.6914C115.692 91.2174 115.959 90.5404 115.959 89.6602C115.959 88.7546 115.692 88.0225 115.159 87.4639C114.626 86.9053 113.89 86.6175 112.95 86.6006H109.459V92.4023ZM128.908 102V83.5156H134.596C136.221 83.5156 137.672 83.8838 138.95 84.6201C140.237 85.348 141.24 86.389 141.959 87.7432C142.678 89.0889 143.038 90.6208 143.038 92.3389V93.1895C143.038 94.9076 142.683 96.4352 141.972 97.7725C141.269 99.1097 140.275 100.146 138.988 100.883C137.702 101.619 136.25 101.992 134.634 102H128.908ZM132.717 86.6006V98.9404H134.558C136.047 98.9404 137.186 98.4538 137.973 97.4805C138.76 96.5072 139.162 95.1149 139.179 93.3037V92.3262C139.179 90.4473 138.789 89.0254 138.011 88.0605C137.232 87.0872 136.094 86.6006 134.596 86.6006H132.717ZM163.414 94.4463H156.102V102H152.293V83.5156H164.328V86.6006H156.102V91.374H163.414V94.4463Z" fill="white"/>
</svg>
